<mxfile host="app.diagrams.net" agent="Mozilla/5.0 (Windows NT 10.0; Win64; x64) AppleWebKit/537.36 (KHTML, like Gecko) Chrome/133.0.0.0 Safari/537.36 Edg/133.0.0.0" version="26.0.16">
  <diagram name="第 1 页" id="F1buSgt6o9pmY5kWkGBE">
    <mxGraphModel dx="2263" dy="766" grid="1" gridSize="10" guides="1" tooltips="1" connect="1" arrows="1" fold="1" page="1" pageScale="1" pageWidth="827" pageHeight="1169" math="0" shadow="0">
      <root>
        <mxCell id="0" />
        <mxCell id="1" parent="0" />
        <UserObject label="" plantUmlData="{&#xa;  &quot;data&quot;: &quot;@startuml 惊喜一餐平衡计分卡模型\n\n!define RECTANGLE class\n\n&#39; 设置样式\nskinparam rectangle {\n  BackgroundColor white\n  BorderColor black\n  ArrowColor black\n}\n\nskinparam class {\n  BackgroundColor white\n  BorderColor black\n}\n\nskinparam title {\n  FontSize 20\n  FontColor black\n}\n\ntitle 惊喜一餐应用平衡计分卡模型\n\n&#39; 定义维度和目标\nrectangle \&quot;财务维度\&quot; as Finance {\n  RECTANGLE \&quot;提高餐饮平台收入\&quot; as F1\n  RECTANGLE \&quot;优化运营成本\&quot; as F2\n  RECTANGLE \&quot;提升平台盈利能力\&quot; as F3\n}\n\nrectangle \&quot;客户维度\&quot; as Customer {\n  RECTANGLE \&quot;提升餐饮推荐准确度\&quot; as C1\n  RECTANGLE \&quot;扩大用户社交互动\&quot; as C2\n  RECTANGLE \&quot;优化积分奖励机制\&quot; as C3\n}\n\nrectangle \&quot;内部流程维度\&quot; as Process {\n  RECTANGLE \&quot;优化随机推荐算法\&quot; as P1\n  RECTANGLE \&quot;完善个性化推荐系统\&quot; as P2\n  RECTANGLE \&quot;提升平台数据安全\&quot; as P3\n}\n\nrectangle \&quot;学习与成长维度\&quot; as Learning {\n  RECTANGLE \&quot;提升算法研发能力\&quot; as L1\n  RECTANGLE \&quot;加强餐饮行业创新\&quot; as L2\n  RECTANGLE \&quot;优化团队协作效率\&quot; as L3\n}\n\n&#39; 设置布局\nLearning -[hidden]d- Process\nProcess -[hidden]d- Customer\nCustomer -[hidden]d- Finance\n\n&#39; 定义因果关系\nLearning -up-&gt; Process : 支持\nProcess -up-&gt; Customer : 影响\nCustomer -up-&gt; Finance : 驱动\n\n&#39; 添加说明\nnote right of Finance : 最终财务成果\nnote right of Customer : 客户价值主张\nnote right of Process : 关键业务流程\nnote right of Learning : 组织能力建设\n\n@enduml&quot;,&#xa;  &quot;format&quot;: &quot;svg&quot;&#xa;}" id="NvQ55osOldz-Pk7gmNim-7">
          <mxCell style="shape=image;noLabel=1;verticalAlign=top;aspect=fixed;imageAspect=0;image=data:image/svg+xml,PD94bWwgdmVyc2lvbj0iMS4wIiBlbmNvZGluZz0idXMtYXNjaWkiIHN0YW5kYWxvbmU9Im5vIj8+PHN2ZyB4bWxucz0iaHR0cDovL3d3dy53My5vcmcvMjAwMC9zdmciIHhtbG5zOnhsaW5rPSJodHRwOi8vd3d3LnczLm9yZy8xOTk5L3hsaW5rIiBjb250ZW50U3R5bGVUeXBlPSJ0ZXh0L2NzcyIgaGVpZ2h0PSI2ODBweCIgcHJlc2VydmVBc3BlY3RSYXRpbz0ibm9uZSIgc3R5bGU9IndpZHRoOjE1MjZweDtoZWlnaHQ6NjgwcHg7YmFja2dyb3VuZDojRkZGRkZGOyIgdmVyc2lvbj0iMS4xIiB2aWV3Qm94PSIwIDAgMTUyNiA2ODAiIHdpZHRoPSIxNTI2cHgiIHpvb21BbmRQYW49Im1hZ25pZnkiPjxkZWZzLz48Zz48dGV4dCBmaWxsPSIjMDAwMDAwIiBmb250LWZhbWlseT0ic2Fucy1zZXJpZiIgZm9udC1zaXplPSIyMCIgZm9udC13ZWlnaHQ9ImJvbGQiIGxlbmd0aEFkanVzdD0ic3BhY2luZyIgdGV4dExlbmd0aD0iMjYwIiB4PSI2MjYuMjUiIHk9IjI4LjkwNjMiPiYjMjQ3Nzg7JiMyMTkxNjsmIzE5OTY4OyYjMzkxODQ7JiMyNDIxMjsmIzI5OTkyOyYjMjQxNzk7JiMzNDkxMzsmIzM1NzQ1OyYjMjA5OTg7JiMyMTM0NTsmIzI3MTY5OyYjMjI0MTE7PC90ZXh0PjwhLS1jbHVzdGVyIEZpbmFuY2UtLT48ZyBpZD0iY2x1c3Rlcl9GaW5hbmNlIj48cmVjdCBmaWxsPSIjRkZGRkZGIiBoZWlnaHQ9IjMwNSIgcng9IjIuNSIgcnk9IjIuNSIgc3R5bGU9InN0cm9rZTojMDAwMDAwO3N0cm9rZS13aWR0aDoxLjA7IiB3aWR0aD0iMzYyIiB4PSIyOCIgeT0iNDkuNDA2MyIvPjx0ZXh0IGZpbGw9IiMwMDAwMDAiIGZvbnQtZmFtaWx5PSJzYW5zLXNlcmlmIiBmb250LXNpemU9IjE0IiBmb250LXdlaWdodD0iYm9sZCIgbGVuZ3RoQWRqdXN0PSJzcGFjaW5nIiB0ZXh0TGVuZ3RoPSI1NiIgeD0iMTgxIiB5PSI2NC42NDA2Ij4mIzM2MTMwOyYjMjExNTM7JiMzMjUwMDsmIzI0MjMwOzwvdGV4dD48L2c+PCEtLWNsdXN0ZXIgQ3VzdG9tZXItLT48ZyBpZD0iY2x1c3Rlcl9DdXN0b21lciI+PHJlY3QgZmlsbD0iI0ZGRkZGRiIgaGVpZ2h0PSIzMjMiIHJ4PSIyLjUiIHJ5PSIyLjUiIHN0eWxlPSJzdHJva2U6IzAwMDAwMDtzdHJva2Utd2lkdGg6MS4wOyIgd2lkdGg9IjQwNCIgeD0iNDUxIiB5PSIyMjQuNDA2MyIvPjx0ZXh0IGZpbGw9IiMwMDAwMDAiIGZvbnQtZmFtaWx5PSJzYW5zLXNlcmlmIiBmb250LXNpemU9IjE0IiBmb250LXdlaWdodD0iYm9sZCIgbGVuZ3RoQWRqdXN0PSJzcGFjaW5nIiB0ZXh0TGVuZ3RoPSI1NiIgeD0iNjI1IiB5PSIyMzkuNjQwNiI+JiMyMzQ1ODsmIzI1MTQzOyYjMzI1MDA7JiMyNDIzMDs8L3RleHQ+PC9nPjwhLS1jbHVzdGVyIFByb2Nlc3MtLT48ZyBpZD0iY2x1c3Rlcl9Qcm9jZXNzIj48cmVjdCBmaWxsPSIjRkZGRkZGIiBoZWlnaHQ9IjI1NyIgcng9IjIuNSIgcnk9IjIuNSIgc3R5bGU9InN0cm9rZTojMDAwMDAwO3N0cm9rZS13aWR0aDoxLjA7IiB3aWR0aD0iNDA0IiB4PSI3IiB5PSI0MTcuNDA2MyIvPjx0ZXh0IGZpbGw9IiMwMDAwMDAiIGZvbnQtZmFtaWx5PSJzYW5zLXNlcmlmIiBmb250LXNpemU9IjE0IiBmb250LXdlaWdodD0iYm9sZCIgbGVuZ3RoQWRqdXN0PSJzcGFjaW5nIiB0ZXh0TGVuZ3RoPSI4NCIgeD0iMTY3IiB5PSI0MzIuNjQwNiI+JiMyMDg2OTsmIzM3MDk2OyYjMjc5Njk7JiMzMTI0MzsmIzMyNTAwOyYjMjQyMzA7PC90ZXh0PjwvZz48IS0tY2x1c3RlciBMZWFybmluZy0tPjxnIGlkPSJjbHVzdGVyX0xlYXJuaW5nIj48cmVjdCBmaWxsPSIjRkZGRkZGIiBoZWlnaHQ9IjI1NyIgcng9IjIuNSIgcnk9IjIuNSIgc3R5bGU9InN0cm9rZTojMDAwMDAwO3N0cm9rZS13aWR0aDoxLjA7IiB3aWR0aD0iMzkwIiB4PSIxMDAzIiB5PSI0MTcuNDA2MyIvPjx0ZXh0IGZpbGw9IiMwMDAwMDAiIGZvbnQtZmFtaWx5PSJzYW5zLXNlcmlmIiBmb250LXNpemU9IjE0IiBmb250LXdlaWdodD0iYm9sZCIgbGVuZ3RoQWRqdXN0PSJzcGFjaW5nIiB0ZXh0TGVuZ3RoPSI5OCIgeD0iMTE0OSIgeT0iNDMyLjY0MDYiPiYjMjMzOTg7JiMyMDA2NDsmIzE5OTgyOyYjMjUxMDQ7JiMzODI3MTsmIzMyNTAwOyYjMjQyMzA7PC90ZXh0PjwvZz48IS0tY2xhc3MgRjEtLT48ZyBpZD0iZWxlbV9GMSI+PHJlY3QgY29kZUxpbmU9IjI0IiBmaWxsPSIjRkZGRkZGIiBoZWlnaHQ9IjQ4IiBpZD0iRjEiIHJ4PSIyLjUiIHJ5PSIyLjUiIHN0eWxlPSJzdHJva2U6IzAwMDAwMDtzdHJva2Utd2lkdGg6MC41OyIgd2lkdGg9IjE0NCIgeD0iNTIiIHk9IjEwNy40MDYzIi8+PGVsbGlwc2UgY3g9IjY3IiBjeT0iMTIzLjQwNjMiIGZpbGw9IiNBREQxQjIiIHJ4PSIxMSIgcnk9IjExIiBzdHlsZT0ic3Ryb2tlOiMxODE4MTg7c3Ryb2tlLXdpZHRoOjEuMDsiLz48cGF0aCBkPSJNNjQuNjI1LDEyNy42NTYzIEw2NC42MjUsMTI5LjQwNjMgTDY5LjU2MjUsMTI5LjQwNjMgTDY5LjU2MjUsMTI3LjY1NjMgTDY0LjYyNSwxMjcuNjU2MyBaIE02NS4zMTI1LDEyOC4zNDM4IFE2NS4zMTI1LDEyOC4zNDM4IDY1LjMxMjUsMTE5LjE1NjMgTDYzLjU2MjUsMTE5LjE1NjMgUTYzLjU2MjUsMTE5LjE1NjMgNjMuNTYyNSwxMjguMzQzOCBMNjUuMzEyNSwxMjguMzQzOCBaIE02OC44NzUsMTI4LjM0MzggTDcwLjYyNSwxMjguMzQzOCBRNzAuNjI1LDEyOC4zNDM4IDcwLjYyNSwxMjUuNTMxMyBMNjguODc1LDEyNS41MzEzIFE2OC44NzUsMTI1LjUzMTMgNjguODc1LDEyOC4zNDM4IFogTTY4Ljg3NSwxMTkuMTU2MyBRNjguODc1LDExOS4xNTYzIDY4Ljg3NSwxMjEuOTY4OCBMNzAuNjI1LDEyMS45Njg4IFE3MC42MjUsMTIxLjk2ODggNzAuNjI1LDExOS4xNTYzIEw2OC44NzUsMTE5LjE1NjMgWiBNNjQuNjI1LDExOS44NDM4IEw2OS41NjI1LDExOS44NDM4IEw2OS41NjI1LDExOC4wOTM4IEw2NC42MjUsMTE4LjA5MzggTDY0LjYyNSwxMTkuODQzOCBaICIgZmlsbD0iIzAwMDAwMCIvPjx0ZXh0IGZpbGw9IiMwMDAwMDAiIGZvbnQtZmFtaWx5PSJzYW5zLXNlcmlmIiBmb250LXNpemU9IjE0IiBsZW5ndGhBZGp1c3Q9InNwYWNpbmciIHRleHRMZW5ndGg9IjExMiIgeD0iODEiIHk9IjEyOS4xNDg0Ij4mIzI1NTUyOyYjMzk2NDA7JiMzOTE4NDsmIzM5Mjc4OyYjMjQxNzk7JiMyMTQ4ODsmIzI1OTEwOyYjMjA4Mzc7PC90ZXh0PjxsaW5lIHN0eWxlPSJzdHJva2U6IzAwMDAwMDtzdHJva2Utd2lkdGg6MC41OyIgeDE9IjUzIiB4Mj0iMTk1IiB5MT0iMTM5LjQwNjMiIHkyPSIxMzkuNDA2MyIvPjxsaW5lIHN0eWxlPSJzdHJva2U6IzAwMDAwMDtzdHJva2Utd2lkdGg6MC41OyIgeDE9IjUzIiB4Mj0iMTk1IiB5MT0iMTQ3LjQwNjMiIHkyPSIxNDcuNDA2MyIvPjwvZz48IS0tY2xhc3MgRjItLT48ZyBpZD0iZWxlbV9GMiI+PHJlY3QgY29kZUxpbmU9IjI1IiBmaWxsPSIjRkZGRkZGIiBoZWlnaHQ9IjQ4IiBpZD0iRjIiIHJ4PSIyLjUiIHJ5PSIyLjUiIHN0eWxlPSJzdHJva2U6IzAwMDAwMDtzdHJva2Utd2lkdGg6MC41OyIgd2lkdGg9IjExNiIgeD0iMjMxIiB5PSIxMDcuNDA2MyIvPjxlbGxpcHNlIGN4PSIyNDYiIGN5PSIxMjMuNDA2MyIgZmlsbD0iI0FERDFCMiIgcng9IjExIiByeT0iMTEiIHN0eWxlPSJzdHJva2U6IzE4MTgxODtzdHJva2Utd2lkdGg6MS4wOyIvPjxwYXRoIGQ9Ik0yNDMuNjI1LDEyNy42NTYzIEwyNDMuNjI1LDEyOS40MDYzIEwyNDguNTYyNSwxMjkuNDA2MyBMMjQ4LjU2MjUsMTI3LjY1NjMgTDI0My42MjUsMTI3LjY1NjMgWiBNMjQ0LjMxMjUsMTI4LjM0MzggUTI0NC4zMTI1LDEyOC4zNDM4IDI0NC4zMTI1LDExOS4xNTYzIEwyNDIuNTYyNSwxMTkuMTU2MyBRMjQyLjU2MjUsMTE5LjE1NjMgMjQyLjU2MjUsMTI4LjM0MzggTDI0NC4zMTI1LDEyOC4zNDM4IFogTTI0Ny44NzUsMTI4LjM0MzggTDI0OS42MjUsMTI4LjM0MzggUTI0OS42MjUsMTI4LjM0MzggMjQ5LjYyNSwxMjUuNTMxMyBMMjQ3Ljg3NSwxMjUuNTMxMyBRMjQ3Ljg3NSwxMjUuNTMxMyAyNDcuODc1LDEyOC4zNDM4IFogTTI0Ny44NzUsMTE5LjE1NjMgUTI0Ny44NzUsMTE5LjE1NjMgMjQ3Ljg3NSwxMjEuOTY4OCBMMjQ5LjYyNSwxMjEuOTY4OCBRMjQ5LjYyNSwxMjEuOTY4OCAyNDkuNjI1LDExOS4xNTYzIEwyNDcuODc1LDExOS4xNTYzIFogTTI0My42MjUsMTE5Ljg0MzggTDI0OC41NjI1LDExOS44NDM4IEwyNDguNTYyNSwxMTguMDkzOCBMMjQzLjYyNSwxMTguMDkzOCBMMjQzLjYyNSwxMTkuODQzOCBaICIgZmlsbD0iIzAwMDAwMCIvPjx0ZXh0IGZpbGw9IiMwMDAwMDAiIGZvbnQtZmFtaWx5PSJzYW5zLXNlcmlmIiBmb250LXNpemU9IjE0IiBsZW5ndGhBZGp1c3Q9InNwYWNpbmciIHRleHRMZW5ndGg9Ijg0IiB4PSIyNjAiIHk9IjEyOS4xNDg0Ij4mIzIwMjQ4OyYjMjEyNzA7JiMzNjgxNjsmIzMzODI5OyYjMjUxMDQ7JiMyNjQxMjs8L3RleHQ+PGxpbmUgc3R5bGU9InN0cm9rZTojMDAwMDAwO3N0cm9rZS13aWR0aDowLjU7IiB4MT0iMjMyIiB4Mj0iMzQ2IiB5MT0iMTM5LjQwNjMiIHkyPSIxMzkuNDA2MyIvPjxsaW5lIHN0eWxlPSJzdHJva2U6IzAwMDAwMDtzdHJva2Utd2lkdGg6MC41OyIgeDE9IjIzMiIgeDI9IjM0NiIgeTE9IjE0Ny40MDYzIiB5Mj0iMTQ3LjQwNjMiLz48L2c+PCEtLWNsYXNzIEYzLS0+PGcgaWQ9ImVsZW1fRjMiPjxyZWN0IGNvZGVMaW5lPSIyNiIgZmlsbD0iI0ZGRkZGRiIgaGVpZ2h0PSI0OCIgaWQ9IkYzIiByeD0iMi41IiByeT0iMi41IiBzdHlsZT0ic3Ryb2tlOiMwMDAwMDA7c3Ryb2tlLXdpZHRoOjAuNTsiIHdpZHRoPSIxNDQiIHg9IjUyIiB5PSIyODIuNDA2MyIvPjxlbGxpcHNlIGN4PSI2NyIgY3k9IjI5OC40MDYzIiBmaWxsPSIjQUREMUIyIiByeD0iMTEiIHJ5PSIxMSIgc3R5bGU9InN0cm9rZTojMTgxODE4O3N0cm9rZS13aWR0aDoxLjA7Ii8+PHBhdGggZD0iTTY0LjYyNSwzMDIuNjU2MyBMNjQuNjI1LDMwNC40MDYzIEw2OS41NjI1LDMwNC40MDYzIEw2OS41NjI1LDMwMi42NTYzIEw2NC42MjUsMzAyLjY1NjMgWiBNNjUuMzEyNSwzMDMuMzQzOCBRNjUuMzEyNSwzMDMuMzQzOCA2NS4zMTI1LDI5NC4xNTYzIEw2My41NjI1LDI5NC4xNTYzIFE2My41NjI1LDI5NC4xNTYzIDYzLjU2MjUsMzAzLjM0MzggTDY1LjMxMjUsMzAzLjM0MzggWiBNNjguODc1LDMwMy4zNDM4IEw3MC42MjUsMzAzLjM0MzggUTcwLjYyNSwzMDMuMzQzOCA3MC42MjUsMzAwLjUzMTMgTDY4Ljg3NSwzMDAuNTMxMyBRNjguODc1LDMwMC41MzEzIDY4Ljg3NSwzMDMuMzQzOCBaIE02OC44NzUsMjk0LjE1NjMgUTY4Ljg3NSwyOTQuMTU2MyA2OC44NzUsMjk2Ljk2ODggTDcwLjYyNSwyOTYuOTY4OCBRNzAuNjI1LDI5Ni45Njg4IDcwLjYyNSwyOTQuMTU2MyBMNjguODc1LDI5NC4xNTYzIFogTTY0LjYyNSwyOTQuODQzOCBMNjkuNTYyNSwyOTQuODQzOCBMNjkuNTYyNSwyOTMuMDkzOCBMNjQuNjI1LDI5My4wOTM4IEw2NC42MjUsMjk0Ljg0MzggWiAiIGZpbGw9IiMwMDAwMDAiLz48dGV4dCBmaWxsPSIjMDAwMDAwIiBmb250LWZhbWlseT0ic2Fucy1zZXJpZiIgZm9udC1zaXplPSIxNCIgbGVuZ3RoQWRqdXN0PSJzcGFjaW5nIiB0ZXh0TGVuZ3RoPSIxMTIiIHg9IjgxIiB5PSIzMDQuMTQ4NCI+JiMyNTU1MjsmIzIxMzE5OyYjMjQxNzk7JiMyMTQ4ODsmIzMwNDA4OyYjMjEwMzM7JiMzMzAyMTsmIzIxMTQ3OzwvdGV4dD48bGluZSBzdHlsZT0ic3Ryb2tlOiMwMDAwMDA7c3Ryb2tlLXdpZHRoOjAuNTsiIHgxPSI1MyIgeDI9IjE5NSIgeTE9IjMxNC40MDYzIiB5Mj0iMzE0LjQwNjMiLz48bGluZSBzdHlsZT0ic3Ryb2tlOiMwMDAwMDA7c3Ryb2tlLXdpZHRoOjAuNTsiIHgxPSI1MyIgeDI9IjE5NSIgeTE9IjMyMi40MDYzIiB5Mj0iMzIyLjQwNjMiLz48L2c+PCEtLWNsYXNzIEMxLS0+PGcgaWQ9ImVsZW1fQzEiPjxyZWN0IGNvZGVMaW5lPSIzMCIgZmlsbD0iI0ZGRkZGRiIgaGVpZ2h0PSI0OCIgaWQ9IkMxIiByeD0iMi41IiByeT0iMi41IiBzdHlsZT0ic3Ryb2tlOiMwMDAwMDA7c3Ryb2tlLXdpZHRoOjAuNTsiIHdpZHRoPSIxNTgiIHg9IjQ5NCIgeT0iMjgyLjQwNjMiLz48ZWxsaXBzZSBjeD0iNTA5IiBjeT0iMjk4LjQwNjMiIGZpbGw9IiNBREQxQjIiIHJ4PSIxMSIgcnk9IjExIiBzdHlsZT0ic3Ryb2tlOiMxODE4MTg7c3Ryb2tlLXdpZHRoOjEuMDsiLz48cGF0aCBkPSJNNTA2LjYyNSwzMDIuNjU2MyBMNTA2LjYyNSwzMDQuNDA2MyBMNTExLjU2MjUsMzA0LjQwNjMgTDUxMS41NjI1LDMwMi42NTYzIEw1MDYuNjI1LDMwMi42NTYzIFogTTUwNy4zMTI1LDMwMy4zNDM4IFE1MDcuMzEyNSwzMDMuMzQzOCA1MDcuMzEyNSwyOTQuMTU2MyBMNTA1LjU2MjUsMjk0LjE1NjMgUTUwNS41NjI1LDI5NC4xNTYzIDUwNS41NjI1LDMwMy4zNDM4IEw1MDcuMzEyNSwzMDMuMzQzOCBaIE01MTAuODc1LDMwMy4zNDM4IEw1MTIuNjI1LDMwMy4zNDM4IFE1MTIuNjI1LDMwMy4zNDM4IDUxMi42MjUsMzAwLjUzMTMgTDUxMC44NzUsMzAwLjUzMTMgUTUxMC44NzUsMzAwLjUzMTMgNTEwLjg3NSwzMDMuMzQzOCBaIE01MTAuODc1LDI5NC4xNTYzIFE1MTAuODc1LDI5NC4xNTYzIDUxMC44NzUsMjk2Ljk2ODggTDUxMi42MjUsMjk2Ljk2ODggUTUxMi42MjUsMjk2Ljk2ODggNTEyLjYyNSwyOTQuMTU2MyBMNTEwLjg3NSwyOTQuMTU2MyBaIE01MDYuNjI1LDI5NC44NDM4IEw1MTEuNTYyNSwyOTQuODQzOCBMNTExLjU2MjUsMjkzLjA5MzggTDUwNi42MjUsMjkzLjA5MzggTDUwNi42MjUsMjk0Ljg0MzggWiAiIGZpbGw9IiMwMDAwMDAiLz48dGV4dCBmaWxsPSIjMDAwMDAwIiBmb250LWZhbWlseT0ic2Fucy1zZXJpZiIgZm9udC1zaXplPSIxNCIgbGVuZ3RoQWRqdXN0PSJzcGFjaW5nIiB0ZXh0TGVuZ3RoPSIxMjYiIHg9IjUyMyIgeT0iMzA0LjE0ODQiPiYjMjU1NTI7JiMyMTMxOTsmIzM5MTg0OyYjMzkyNzg7JiMyNTUxMjsmIzMzNjE2OyYjMjA5MzQ7JiMzMDgzMDsmIzI0MjMwOzwvdGV4dD48bGluZSBzdHlsZT0ic3Ryb2tlOiMwMDAwMDA7c3Ryb2tlLXdpZHRoOjAuNTsiIHgxPSI0OTUiIHgyPSI2NTEiIHkxPSIzMTQuNDA2MyIgeTI9IjMxNC40MDYzIi8+PGxpbmUgc3R5bGU9InN0cm9rZTojMDAwMDAwO3N0cm9rZS13aWR0aDowLjU7IiB4MT0iNDk1IiB4Mj0iNjUxIiB5MT0iMzIyLjQwNjMiIHkyPSIzMjIuNDA2MyIvPjwvZz48IS0tY2xhc3MgQzItLT48ZyBpZD0iZWxlbV9DMiI+PHJlY3QgY29kZUxpbmU9IjMxIiBmaWxsPSIjRkZGRkZGIiBoZWlnaHQ9IjQ4IiBpZD0iQzIiIHJ4PSIyLjUiIHJ5PSIyLjUiIHN0eWxlPSJzdHJva2U6IzAwMDAwMDtzdHJva2Utd2lkdGg6MC41OyIgd2lkdGg9IjE0NCIgeD0iNjg3IiB5PSIyODIuNDA2MyIvPjxlbGxpcHNlIGN4PSI3MDIiIGN5PSIyOTguNDA2MyIgZmlsbD0iI0FERDFCMiIgcng9IjExIiByeT0iMTEiIHN0eWxlPSJzdHJva2U6IzE4MTgxODtzdHJva2Utd2lkdGg6MS4wOyIvPjxwYXRoIGQ9Ik02OTkuNjI1LDMwMi42NTYzIEw2OTkuNjI1LDMwNC40MDYzIEw3MDQuNTYyNSwzMDQuNDA2MyBMNzA0LjU2MjUsMzAyLjY1NjMgTDY5OS42MjUsMzAyLjY1NjMgWiBNNzAwLjMxMjUsMzAzLjM0MzggUTcwMC4zMTI1LDMwMy4zNDM4IDcwMC4zMTI1LDI5NC4xNTYzIEw2OTguNTYyNSwyOTQuMTU2MyBRNjk4LjU2MjUsMjk0LjE1NjMgNjk4LjU2MjUsMzAzLjM0MzggTDcwMC4zMTI1LDMwMy4zNDM4IFogTTcwMy44NzUsMzAzLjM0MzggTDcwNS42MjUsMzAzLjM0MzggUTcwNS42MjUsMzAzLjM0MzggNzA1LjYyNSwzMDAuNTMxMyBMNzAzLjg3NSwzMDAuNTMxMyBRNzAzLjg3NSwzMDAuNTMxMyA3MDMuODc1LDMwMy4zNDM4IFogTTcwMy44NzUsMjk0LjE1NjMgUTcwMy44NzUsMjk0LjE1NjMgNzAzLjg3NSwyOTYuOTY4OCBMNzA1LjYyNSwyOTYuOTY4OCBRNzA1LjYyNSwyOTYuOTY4OCA3MDUuNjI1LDI5NC4xNTYzIEw3MDMuODc1LDI5NC4xNTYzIFogTTY5OS42MjUsMjk0Ljg0MzggTDcwNC41NjI1LDI5NC44NDM4IEw3MDQuNTYyNSwyOTMuMDkzOCBMNjk5LjYyNSwyOTMuMDkzOCBMNjk5LjYyNSwyOTQuODQzOCBaICIgZmlsbD0iIzAwMDAwMCIvPjx0ZXh0IGZpbGw9IiMwMDAwMDAiIGZvbnQtZmFtaWx5PSJzYW5zLXNlcmlmIiBmb250LXNpemU9IjE0IiBsZW5ndGhBZGp1c3Q9InNwYWNpbmciIHRleHRMZW5ndGg9IjExMiIgeD0iNzE2IiB5PSIzMDQuMTQ4NCI+JiMyNTE5MzsmIzIyODIzOyYjMjk5OTI7JiMyNTE0MzsmIzMxMDM4OyYjMjAxMzI7JiMyMDExNDsmIzIxMTYwOzwvdGV4dD48bGluZSBzdHlsZT0ic3Ryb2tlOiMwMDAwMDA7c3Ryb2tlLXdpZHRoOjAuNTsiIHgxPSI2ODgiIHgyPSI4MzAiIHkxPSIzMTQuNDA2MyIgeTI9IjMxNC40MDYzIi8+PGxpbmUgc3R5bGU9InN0cm9rZTojMDAwMDAwO3N0cm9rZS13aWR0aDowLjU7IiB4MT0iNjg4IiB4Mj0iODMwIiB5MT0iMzIyLjQwNjMiIHkyPSIzMjIuNDA2MyIvPjwvZz48IS0tY2xhc3MgQzMtLT48ZyBpZD0iZWxlbV9DMyI+PHJlY3QgY29kZUxpbmU9IjMyIiBmaWxsPSIjRkZGRkZGIiBoZWlnaHQ9IjQ4IiBpZD0iQzMiIHJ4PSIyLjUiIHJ5PSIyLjUiIHN0eWxlPSJzdHJva2U6IzAwMDAwMDtzdHJva2Utd2lkdGg6MC41OyIgd2lkdGg9IjE0NCIgeD0iNTAxIiB5PSI0NzUuNDA2MyIvPjxlbGxpcHNlIGN4PSI1MTYiIGN5PSI0OTEuNDA2MyIgZmlsbD0iI0FERDFCMiIgcng9IjExIiByeT0iMTEiIHN0eWxlPSJzdHJva2U6IzE4MTgxODtzdHJva2Utd2lkdGg6MS4wOyIvPjxwYXRoIGQ9Ik01MTMuNjI1LDQ5NS42NTYzIEw1MTMuNjI1LDQ5Ny40MDYzIEw1MTguNTYyNSw0OTcuNDA2MyBMNTE4LjU2MjUsNDk1LjY1NjMgTDUxMy42MjUsNDk1LjY1NjMgWiBNNTE0LjMxMjUsNDk2LjM0MzggUTUxNC4zMTI1LDQ5Ni4zNDM4IDUxNC4zMTI1LDQ4Ny4xNTYzIEw1MTIuNTYyNSw0ODcuMTU2MyBRNTEyLjU2MjUsNDg3LjE1NjMgNTEyLjU2MjUsNDk2LjM0MzggTDUxNC4zMTI1LDQ5Ni4zNDM4IFogTTUxNy44NzUsNDk2LjM0MzggTDUxOS42MjUsNDk2LjM0MzggUTUxOS42MjUsNDk2LjM0MzggNTE5LjYyNSw0OTMuNTMxMyBMNTE3Ljg3NSw0OTMuNTMxMyBRNTE3Ljg3NSw0OTMuNTMxMyA1MTcuODc1LDQ5Ni4zNDM4IFogTTUxNy44NzUsNDg3LjE1NjMgUTUxNy44NzUsNDg3LjE1NjMgNTE3Ljg3NSw0ODkuOTY4OCBMNTE5LjYyNSw0ODkuOTY4OCBRNTE5LjYyNSw0ODkuOTY4OCA1MTkuNjI1LDQ4Ny4xNTYzIEw1MTcuODc1LDQ4Ny4xNTYzIFogTTUxMy42MjUsNDg3Ljg0MzggTDUxOC41NjI1LDQ4Ny44NDM4IEw1MTguNTYyNSw0ODYuMDkzOCBMNTEzLjYyNSw0ODYuMDkzOCBMNTEzLjYyNSw0ODcuODQzOCBaICIgZmlsbD0iIzAwMDAwMCIvPjx0ZXh0IGZpbGw9IiMwMDAwMDAiIGZvbnQtZmFtaWx5PSJzYW5zLXNlcmlmIiBmb250LXNpemU9IjE0IiBsZW5ndGhBZGp1c3Q9InNwYWNpbmciIHRleHRMZW5ndGg9IjExMiIgeD0iNTMwIiB5PSI0OTcuMTQ4NCI+JiMyMDI0ODsmIzIxMjcwOyYjMzEyMTU7JiMyMDk5ODsmIzIyODcwOyYjMjExNjk7JiMyNjQyNjsmIzIxMDQ2OzwvdGV4dD48bGluZSBzdHlsZT0ic3Ryb2tlOiMwMDAwMDA7c3Ryb2tlLXdpZHRoOjAuNTsiIHgxPSI1MDIiIHgyPSI2NDQiIHkxPSI1MDcuNDA2MyIgeTI9IjUwNy40MDYzIi8+PGxpbmUgc3R5bGU9InN0cm9rZTojMDAwMDAwO3N0cm9rZS13aWR0aDowLjU7IiB4MT0iNTAyIiB4Mj0iNjQ0IiB5MT0iNTE1LjQwNjMiIHkyPSI1MTUuNDA2MyIvPjwvZz48IS0tY2xhc3MgUDEtLT48ZyBpZD0iZWxlbV9QMSI+PHJlY3QgY29kZUxpbmU9IjM2IiBmaWxsPSIjRkZGRkZGIiBoZWlnaHQ9IjQ4IiBpZD0iUDEiIHJ4PSIyLjUiIHJ5PSIyLjUiIHN0eWxlPSJzdHJva2U6IzAwMDAwMDtzdHJva2Utd2lkdGg6MC41OyIgd2lkdGg9IjE0NCIgeD0iMzEiIHk9IjQ3NS40MDYzIi8+PGVsbGlwc2UgY3g9IjQ2IiBjeT0iNDkxLjQwNjMiIGZpbGw9IiNBREQxQjIiIHJ4PSIxMSIgcnk9IjExIiBzdHlsZT0ic3Ryb2tlOiMxODE4MTg7c3Ryb2tlLXdpZHRoOjEuMDsiLz48cGF0aCBkPSJNNDMuNjI1LDQ5NS42NTYzIEw0My42MjUsNDk3LjQwNjMgTDQ4LjU2MjUsNDk3LjQwNjMgTDQ4LjU2MjUsNDk1LjY1NjMgTDQzLjYyNSw0OTUuNjU2MyBaIE00NC4zMTI1LDQ5Ni4zNDM4IFE0NC4zMTI1LDQ5Ni4zNDM4IDQ0LjMxMjUsNDg3LjE1NjMgTDQyLjU2MjUsNDg3LjE1NjMgUTQyLjU2MjUsNDg3LjE1NjMgNDIuNTYyNSw0OTYuMzQzOCBMNDQuMzEyNSw0OTYuMzQzOCBaIE00Ny44NzUsNDk2LjM0MzggTDQ5LjYyNSw0OTYuMzQzOCBRNDkuNjI1LDQ5Ni4zNDM4IDQ5LjYyNSw0OTMuNTMxMyBMNDcuODc1LDQ5My41MzEzIFE0Ny44NzUsNDkzLjUzMTMgNDcuODc1LDQ5Ni4zNDM4IFogTTQ3Ljg3NSw0ODcuMTU2MyBRNDcuODc1LDQ4Ny4xNTYzIDQ3Ljg3NSw0ODkuOTY4OCBMNDkuNjI1LDQ4OS45Njg4IFE0OS42MjUsNDg5Ljk2ODggNDkuNjI1LDQ4Ny4xNTYzIEw0Ny44NzUsNDg3LjE1NjMgWiBNNDMuNjI1LDQ4Ny44NDM4IEw0OC41NjI1LDQ4Ny44NDM4IEw0OC41NjI1LDQ4Ni4wOTM4IEw0My42MjUsNDg2LjA5MzggTDQzLjYyNSw0ODcuODQzOCBaICIgZmlsbD0iIzAwMDAwMCIvPjx0ZXh0IGZpbGw9IiMwMDAwMDAiIGZvbnQtZmFtaWx5PSJzYW5zLXNlcmlmIiBmb250LXNpemU9IjE0IiBsZW5ndGhBZGp1c3Q9InNwYWNpbmciIHRleHRMZW5ndGg9IjExMiIgeD0iNjAiIHk9IjQ5Ny4xNDg0Ij4mIzIwMjQ4OyYjMjEyNzA7JiMzODU0MzsmIzI2NDI2OyYjMjU1MTI7JiMzMzYxNjsmIzMxNjM5OyYjMjc4NjE7PC90ZXh0PjxsaW5lIHN0eWxlPSJzdHJva2U6IzAwMDAwMDtzdHJva2Utd2lkdGg6MC41OyIgeDE9IjMyIiB4Mj0iMTc0IiB5MT0iNTA3LjQwNjMiIHkyPSI1MDcuNDA2MyIvPjxsaW5lIHN0eWxlPSJzdHJva2U6IzAwMDAwMDtzdHJva2Utd2lkdGg6MC41OyIgeDE9IjMyIiB4Mj0iMTc0IiB5MT0iNTE1LjQwNjMiIHkyPSI1MTUuNDA2MyIvPjwvZz48IS0tY2xhc3MgUDItLT48ZyBpZD0iZWxlbV9QMiI+PHJlY3QgY29kZUxpbmU9IjM3IiBmaWxsPSIjRkZGRkZGIiBoZWlnaHQ9IjQ4IiBpZD0iUDIiIHJ4PSIyLjUiIHJ5PSIyLjUiIHN0eWxlPSJzdHJva2U6IzAwMDAwMDtzdHJva2Utd2lkdGg6MC41OyIgd2lkdGg9IjE1OCIgeD0iMjEwIiB5PSI0NzUuNDA2MyIvPjxlbGxpcHNlIGN4PSIyMjUiIGN5PSI0OTEuNDA2MyIgZmlsbD0iI0FERDFCMiIgcng9IjExIiByeT0iMTEiIHN0eWxlPSJzdHJva2U6IzE4MTgxODtzdHJva2Utd2lkdGg6MS4wOyIvPjxwYXRoIGQ9Ik0yMjIuNjI1LDQ5NS42NTYzIEwyMjIuNjI1LDQ5Ny40MDYzIEwyMjcuNTYyNSw0OTcuNDA2MyBMMjI3LjU2MjUsNDk1LjY1NjMgTDIyMi42MjUsNDk1LjY1NjMgWiBNMjIzLjMxMjUsNDk2LjM0MzggUTIyMy4zMTI1LDQ5Ni4zNDM4IDIyMy4zMTI1LDQ4Ny4xNTYzIEwyMjEuNTYyNSw0ODcuMTU2MyBRMjIxLjU2MjUsNDg3LjE1NjMgMjIxLjU2MjUsNDk2LjM0MzggTDIyMy4zMTI1LDQ5Ni4zNDM4IFogTTIyNi44NzUsNDk2LjM0MzggTDIyOC42MjUsNDk2LjM0MzggUTIyOC42MjUsNDk2LjM0MzggMjI4LjYyNSw0OTMuNTMxMyBMMjI2Ljg3NSw0OTMuNTMxMyBRMjI2Ljg3NSw0OTMuNTMxMyAyMjYuODc1LDQ5Ni4zNDM4IFogTTIyNi44NzUsNDg3LjE1NjMgUTIyNi44NzUsNDg3LjE1NjMgMjI2Ljg3NSw0ODkuOTY4OCBMMjI4LjYyNSw0ODkuOTY4OCBRMjI4LjYyNSw0ODkuOTY4OCAyMjguNjI1LDQ4Ny4xNTYzIEwyMjYuODc1LDQ4Ny4xNTYzIFogTTIyMi42MjUsNDg3Ljg0MzggTDIyNy41NjI1LDQ4Ny44NDM4IEwyMjcuNTYyNSw0ODYuMDkzOCBMMjIyLjYyNSw0ODYuMDkzOCBMMjIyLjYyNSw0ODcuODQzOCBaICIgZmlsbD0iIzAwMDAwMCIvPjx0ZXh0IGZpbGw9IiMwMDAwMDAiIGZvbnQtZmFtaWx5PSJzYW5zLXNlcmlmIiBmb250LXNpemU9IjE0IiBsZW5ndGhBZGp1c3Q9InNwYWNpbmciIHRleHRMZW5ndGg9IjEyNiIgeD0iMjM5IiB5PSI0OTcuMTQ4NCI+JiMyMzQzNjsmIzIxODkyOyYjMjAwMTA7JiMyNDYxNTsmIzIxMjcwOyYjMjU1MTI7JiMzMzYxNjsmIzMxOTk1OyYjMzI0Nzk7PC90ZXh0PjxsaW5lIHN0eWxlPSJzdHJva2U6IzAwMDAwMDtzdHJva2Utd2lkdGg6MC41OyIgeDE9IjIxMSIgeDI9IjM2NyIgeTE9IjUwNy40MDYzIiB5Mj0iNTA3LjQwNjMiLz48bGluZSBzdHlsZT0ic3Ryb2tlOiMwMDAwMDA7c3Ryb2tlLXdpZHRoOjAuNTsiIHgxPSIyMTEiIHgyPSIzNjciIHkxPSI1MTUuNDA2MyIgeTI9IjUxNS40MDYzIi8+PC9nPjwhLS1jbGFzcyBQMy0tPjxnIGlkPSJlbGVtX1AzIj48cmVjdCBjb2RlTGluZT0iMzgiIGZpbGw9IiNGRkZGRkYiIGhlaWdodD0iNDgiIGlkPSJQMyIgcng9IjIuNSIgcnk9IjIuNSIgc3R5bGU9InN0cm9rZTojMDAwMDAwO3N0cm9rZS13aWR0aDowLjU7IiB3aWR0aD0iMTQ0IiB4PSIzMSIgeT0iNjAyLjQwNjMiLz48ZWxsaXBzZSBjeD0iNDYiIGN5PSI2MTguNDA2MyIgZmlsbD0iI0FERDFCMiIgcng9IjExIiByeT0iMTEiIHN0eWxlPSJzdHJva2U6IzE4MTgxODtzdHJva2Utd2lkdGg6MS4wOyIvPjxwYXRoIGQ9Ik00My42MjUsNjIyLjY1NjMgTDQzLjYyNSw2MjQuNDA2MyBMNDguNTYyNSw2MjQuNDA2MyBMNDguNTYyNSw2MjIuNjU2MyBMNDMuNjI1LDYyMi42NTYzIFogTTQ0LjMxMjUsNjIzLjM0MzggUTQ0LjMxMjUsNjIzLjM0MzggNDQuMzEyNSw2MTQuMTU2MyBMNDIuNTYyNSw2MTQuMTU2MyBRNDIuNTYyNSw2MTQuMTU2MyA0Mi41NjI1LDYyMy4zNDM4IEw0NC4zMTI1LDYyMy4zNDM4IFogTTQ3Ljg3NSw2MjMuMzQzOCBMNDkuNjI1LDYyMy4zNDM4IFE0OS42MjUsNjIzLjM0MzggNDkuNjI1LDYyMC41MzEzIEw0Ny44NzUsNjIwLjUzMTMgUTQ3Ljg3NSw2MjAuNTMxMyA0Ny44NzUsNjIzLjM0MzggWiBNNDcuODc1LDYxNC4xNTYzIFE0Ny44NzUsNjE0LjE1NjMgNDcuODc1LDYxNi45Njg4IEw0OS42MjUsNjE2Ljk2ODggUTQ5LjYyNSw2MTYuOTY4OCA0OS42MjUsNjE0LjE1NjMgTDQ3Ljg3NSw2MTQuMTU2MyBaIE00My42MjUsNjE0Ljg0MzggTDQ4LjU2MjUsNjE0Ljg0MzggTDQ4LjU2MjUsNjEzLjA5MzggTDQzLjYyNSw2MTMuMDkzOCBMNDMuNjI1LDYxNC44NDM4IFogIiBmaWxsPSIjMDAwMDAwIi8+PHRleHQgZmlsbD0iIzAwMDAwMCIgZm9udC1mYW1pbHk9InNhbnMtc2VyaWYiIGZvbnQtc2l6ZT0iMTQiIGxlbmd0aEFkanVzdD0ic3BhY2luZyIgdGV4dExlbmd0aD0iMTEyIiB4PSI2MCIgeT0iNjI0LjE0ODQiPiYjMjU1NTI7JiMyMTMxOTsmIzI0MTc5OyYjMjE0ODg7JiMyNTk2ODsmIzI1NDU0OyYjMjM0MzM7JiMyMDg0MDs8L3RleHQ+PGxpbmUgc3R5bGU9InN0cm9rZTojMDAwMDAwO3N0cm9rZS13aWR0aDowLjU7IiB4MT0iMzIiIHgyPSIxNzQiIHkxPSI2MzQuNDA2MyIgeTI9IjYzNC40MDYzIi8+PGxpbmUgc3R5bGU9InN0cm9rZTojMDAwMDAwO3N0cm9rZS13aWR0aDowLjU7IiB4MT0iMzIiIHgyPSIxNzQiIHkxPSI2NDIuNDA2MyIgeTI9IjY0Mi40MDYzIi8+PC9nPjwhLS1jbGFzcyBMMS0tPjxnIGlkPSJlbGVtX0wxIj48cmVjdCBjb2RlTGluZT0iNDIiIGZpbGw9IiNGRkZGRkYiIGhlaWdodD0iNDgiIGlkPSJMMSIgcng9IjIuNSIgcnk9IjIuNSIgc3R5bGU9InN0cm9rZTojMDAwMDAwO3N0cm9rZS13aWR0aDowLjU7IiB3aWR0aD0iMTQ0IiB4PSIxMDI3IiB5PSI0NzUuNDA2MyIvPjxlbGxpcHNlIGN4PSIxMDQyIiBjeT0iNDkxLjQwNjMiIGZpbGw9IiNBREQxQjIiIHJ4PSIxMSIgcnk9IjExIiBzdHlsZT0ic3Ryb2tlOiMxODE4MTg7c3Ryb2tlLXdpZHRoOjEuMDsiLz48cGF0aCBkPSJNMTAzOS42MjUsNDk1LjY1NjMgTDEwMzkuNjI1LDQ5Ny40MDYzIEwxMDQ0LjU2MjUsNDk3LjQwNjMgTDEwNDQuNTYyNSw0OTUuNjU2MyBMMTAzOS42MjUsNDk1LjY1NjMgWiBNMTA0MC4zMTI1LDQ5Ni4zNDM4IFExMDQwLjMxMjUsNDk2LjM0MzggMTA0MC4zMTI1LDQ4Ny4xNTYzIEwxMDM4LjU2MjUsNDg3LjE1NjMgUTEwMzguNTYyNSw0ODcuMTU2MyAxMDM4LjU2MjUsNDk2LjM0MzggTDEwNDAuMzEyNSw0OTYuMzQzOCBaIE0xMDQzLjg3NSw0OTYuMzQzOCBMMTA0NS42MjUsNDk2LjM0MzggUTEwNDUuNjI1LDQ5Ni4zNDM4IDEwNDUuNjI1LDQ5My41MzEzIEwxMDQzLjg3NSw0OTMuNTMxMyBRMTA0My44NzUsNDkzLjUzMTMgMTA0My44NzUsNDk2LjM0MzggWiBNMTA0My44NzUsNDg3LjE1NjMgUTEwNDMuODc1LDQ4Ny4xNTYzIDEwNDMuODc1LDQ4OS45Njg4IEwxMDQ1LjYyNSw0ODkuOTY4OCBRMTA0NS42MjUsNDg5Ljk2ODggMTA0NS42MjUsNDg3LjE1NjMgTDEwNDMuODc1LDQ4Ny4xNTYzIFogTTEwMzkuNjI1LDQ4Ny44NDM4IEwxMDQ0LjU2MjUsNDg3Ljg0MzggTDEwNDQuNTYyNSw0ODYuMDkzOCBMMTAzOS42MjUsNDg2LjA5MzggTDEwMzkuNjI1LDQ4Ny44NDM4IFogIiBmaWxsPSIjMDAwMDAwIi8+PHRleHQgZmlsbD0iIzAwMDAwMCIgZm9udC1mYW1pbHk9InNhbnMtc2VyaWYiIGZvbnQtc2l6ZT0iMTQiIGxlbmd0aEFkanVzdD0ic3BhY2luZyIgdGV4dExlbmd0aD0iMTEyIiB4PSIxMDU2IiB5PSI0OTcuMTQ4NCI+JiMyNTU1MjsmIzIxMzE5OyYjMzE2Mzk7JiMyNzg2MTsmIzMwNzQwOyYjMjE0NTc7JiMzMzAyMTsmIzIxMTQ3OzwvdGV4dD48bGluZSBzdHlsZT0ic3Ryb2tlOiMwMDAwMDA7c3Ryb2tlLXdpZHRoOjAuNTsiIHgxPSIxMDI4IiB4Mj0iMTE3MCIgeTE9IjUwNy40MDYzIiB5Mj0iNTA3LjQwNjMiLz48bGluZSBzdHlsZT0ic3Ryb2tlOiMwMDAwMDA7c3Ryb2tlLXdpZHRoOjAuNTsiIHgxPSIxMDI4IiB4Mj0iMTE3MCIgeTE9IjUxNS40MDYzIiB5Mj0iNTE1LjQwNjMiLz48L2c+PCEtLWNsYXNzIEwyLS0+PGcgaWQ9ImVsZW1fTDIiPjxyZWN0IGNvZGVMaW5lPSI0MyIgZmlsbD0iI0ZGRkZGRiIgaGVpZ2h0PSI0OCIgaWQ9IkwyIiByeD0iMi41IiByeT0iMi41IiBzdHlsZT0ic3Ryb2tlOiMwMDAwMDA7c3Ryb2tlLXdpZHRoOjAuNTsiIHdpZHRoPSIxNDQiIHg9IjEyMDYiIHk9IjQ3NS40MDYzIi8+PGVsbGlwc2UgY3g9IjEyMjEiIGN5PSI0OTEuNDA2MyIgZmlsbD0iI0FERDFCMiIgcng9IjExIiByeT0iMTEiIHN0eWxlPSJzdHJva2U6IzE4MTgxODtzdHJva2Utd2lkdGg6MS4wOyIvPjxwYXRoIGQ9Ik0xMjE4LjYyNSw0OTUuNjU2MyBMMTIxOC42MjUsNDk3LjQwNjMgTDEyMjMuNTYyNSw0OTcuNDA2MyBMMTIyMy41NjI1LDQ5NS42NTYzIEwxMjE4LjYyNSw0OTUuNjU2MyBaIE0xMjE5LjMxMjUsNDk2LjM0MzggUTEyMTkuMzEyNSw0OTYuMzQzOCAxMjE5LjMxMjUsNDg3LjE1NjMgTDEyMTcuNTYyNSw0ODcuMTU2MyBRMTIxNy41NjI1LDQ4Ny4xNTYzIDEyMTcuNTYyNSw0OTYuMzQzOCBMMTIxOS4zMTI1LDQ5Ni4zNDM4IFogTTEyMjIuODc1LDQ5Ni4zNDM4IEwxMjI0LjYyNSw0OTYuMzQzOCBRMTIyNC42MjUsNDk2LjM0MzggMTIyNC42MjUsNDkzLjUzMTMgTDEyMjIuODc1LDQ5My41MzEzIFExMjIyLjg3NSw0OTMuNTMxMyAxMjIyLjg3NSw0OTYuMzQzOCBaIE0xMjIyLjg3NSw0ODcuMTU2MyBRMTIyMi44NzUsNDg3LjE1NjMgMTIyMi44NzUsNDg5Ljk2ODggTDEyMjQuNjI1LDQ4OS45Njg4IFExMjI0LjYyNSw0ODkuOTY4OCAxMjI0LjYyNSw0ODcuMTU2MyBMMTIyMi44NzUsNDg3LjE1NjMgWiBNMTIxOC42MjUsNDg3Ljg0MzggTDEyMjMuNTYyNSw0ODcuODQzOCBMMTIyMy41NjI1LDQ4Ni4wOTM4IEwxMjE4LjYyNSw0ODYuMDkzOCBMMTIxOC42MjUsNDg3Ljg0MzggWiAiIGZpbGw9IiMwMDAwMDAiLz48dGV4dCBmaWxsPSIjMDAwMDAwIiBmb250LWZhbWlseT0ic2Fucy1zZXJpZiIgZm9udC1zaXplPSIxNCIgbGVuZ3RoQWRqdXN0PSJzcGFjaW5nIiB0ZXh0TGVuZ3RoPSIxMTIiIHg9IjEyMzUiIHk9IjQ5Ny4xNDg0Ij4mIzIxMTUyOyYjMjQzNzg7JiMzOTE4NDsmIzM5Mjc4OyYjMzQ4OTI7JiMxOTk5NDsmIzIxMDE5OyYjMjYwMzI7PC90ZXh0PjxsaW5lIHN0eWxlPSJzdHJva2U6IzAwMDAwMDtzdHJva2Utd2lkdGg6MC41OyIgeDE9IjEyMDciIHgyPSIxMzQ5IiB5MT0iNTA3LjQwNjMiIHkyPSI1MDcuNDA2MyIvPjxsaW5lIHN0eWxlPSJzdHJva2U6IzAwMDAwMDtzdHJva2Utd2lkdGg6MC41OyIgeDE9IjEyMDciIHgyPSIxMzQ5IiB5MT0iNTE1LjQwNjMiIHkyPSI1MTUuNDA2MyIvPjwvZz48IS0tY2xhc3MgTDMtLT48ZyBpZD0iZWxlbV9MMyI+PHJlY3QgY29kZUxpbmU9IjQ0IiBmaWxsPSIjRkZGRkZGIiBoZWlnaHQ9IjQ4IiBpZD0iTDMiIHJ4PSIyLjUiIHJ5PSIyLjUiIHN0eWxlPSJzdHJva2U6IzAwMDAwMDtzdHJva2Utd2lkdGg6MC41OyIgd2lkdGg9IjE0NCIgeD0iMTAyNyIgeT0iNjAyLjQwNjMiLz48ZWxsaXBzZSBjeD0iMTA0MiIgY3k9IjYxOC40MDYzIiBmaWxsPSIjQUREMUIyIiByeD0iMTEiIHJ5PSIxMSIgc3R5bGU9InN0cm9rZTojMTgxODE4O3N0cm9rZS13aWR0aDoxLjA7Ii8+PHBhdGggZD0iTTEwMzkuNjI1LDYyMi42NTYzIEwxMDM5LjYyNSw2MjQuNDA2MyBMMTA0NC41NjI1LDYyNC40MDYzIEwxMDQ0LjU2MjUsNjIyLjY1NjMgTDEwMzkuNjI1LDYyMi42NTYzIFogTTEwNDAuMzEyNSw2MjMuMzQzOCBRMTA0MC4zMTI1LDYyMy4zNDM4IDEwNDAuMzEyNSw2MTQuMTU2MyBMMTAzOC41NjI1LDYxNC4xNTYzIFExMDM4LjU2MjUsNjE0LjE1NjMgMTAzOC41NjI1LDYyMy4zNDM4IEwxMDQwLjMxMjUsNjIzLjM0MzggWiBNMTA0My44NzUsNjIzLjM0MzggTDEwNDUuNjI1LDYyMy4zNDM4IFExMDQ1LjYyNSw2MjMuMzQzOCAxMDQ1LjYyNSw2MjAuNTMxMyBMMTA0My44NzUsNjIwLjUzMTMgUTEwNDMuODc1LDYyMC41MzEzIDEwNDMuODc1LDYyMy4zNDM4IFogTTEwNDMuODc1LDYxNC4xNTYzIFExMDQzLjg3NSw2MTQuMTU2MyAxMDQzLjg3NSw2MTYuOTY4OCBMMTA0NS42MjUsNjE2Ljk2ODggUTEwNDUuNjI1LDYxNi45Njg4IDEwNDUuNjI1LDYxNC4xNTYzIEwxMDQzLjg3NSw2MTQuMTU2MyBaIE0xMDM5LjYyNSw2MTQuODQzOCBMMTA0NC41NjI1LDYxNC44NDM4IEwxMDQ0LjU2MjUsNjEzLjA5MzggTDEwMzkuNjI1LDYxMy4wOTM4IEwxMDM5LjYyNSw2MTQuODQzOCBaICIgZmlsbD0iIzAwMDAwMCIvPjx0ZXh0IGZpbGw9IiMwMDAwMDAiIGZvbnQtZmFtaWx5PSJzYW5zLXNlcmlmIiBmb250LXNpemU9IjE0IiBsZW5ndGhBZGp1c3Q9InNwYWNpbmciIHRleHRMZW5ndGg9IjExMiIgeD0iMTA1NiIgeT0iNjI0LjE0ODQiPiYjMjAyNDg7JiMyMTI3MDsmIzIyMjQyOyYjMzg0MzE7JiMyMTMyNzsmIzIwMzE2OyYjMjU5Mjg7JiMyOTU3NTs8L3RleHQ+PGxpbmUgc3R5bGU9InN0cm9rZTojMDAwMDAwO3N0cm9rZS13aWR0aDowLjU7IiB4MT0iMTAyOCIgeDI9IjExNzAiIHkxPSI2MzQuNDA2MyIgeTI9IjYzNC40MDYzIi8+PGxpbmUgc3R5bGU9InN0cm9rZTojMDAwMDAwO3N0cm9rZS13aWR0aDowLjU7IiB4MT0iMTAyOCIgeDI9IjExNzAiIHkxPSI2NDIuNDA2MyIgeTI9IjY0Mi40MDYzIi8+PC9nPjxnIGlkPSJlbGVtX0dNTjI3Ij48cGF0aCBkPSJNNDE3LjUsMTE5LjQwNjMgTDQxNy41LDE0My4zMjAzIEw1MTYuNSwxNDMuMzIwMyBMNTE2LjUsMTI5LjQwNjMgTDUwNi41LDExOS40MDYzIEw0MTcuNSwxMTkuNDA2MyAiIGZpbGw9IiNGRUZGREQiIHN0eWxlPSJzdHJva2U6IzE4MTgxODtzdHJva2Utd2lkdGg6MC41OyIvPjxwYXRoIGQ9Ik01MDYuNSwxMTkuNDA2MyBMNTA2LjUsMTI5LjQwNjMgTDUxNi41LDEyOS40MDYzIEw1MDYuNSwxMTkuNDA2MyAiIGZpbGw9IiNGRUZGREQiIHN0eWxlPSJzdHJva2U6IzE4MTgxODtzdHJva2Utd2lkdGg6MS4wOyIvPjx0ZXh0IGZpbGw9IiMwMDAwMDAiIGZvbnQtZmFtaWx5PSJzYW5zLXNlcmlmIiBmb250LXNpemU9IjEzIiBsZW5ndGhBZGp1c3Q9InNwYWNpbmciIHRleHRMZW5ndGg9Ijc4IiB4PSI0MjMuNSIgeT0iMTM2LjY5NTMiPiYjMjYzNjg7JiMzMjQ1NjsmIzM2MTMwOyYjMjExNTM7JiMyNTEwNDsmIzI2NTI0OzwvdGV4dD48L2c+PGcgaWQ9ImVsZW1fR01OMzAiPjxwYXRoIGQ9Ik04NzkuNSwyOTQuNDA2MyBMODc5LjUsMzE4LjMyMDMgTDk3OC41LDMxOC4zMjAzIEw5NzguNSwzMDQuNDA2MyBMOTY4LjUsMjk0LjQwNjMgTDg3OS41LDI5NC40MDYzICIgZmlsbD0iI0ZFRkZERCIgc3R5bGU9InN0cm9rZTojMTgxODE4O3N0cm9rZS13aWR0aDowLjU7Ii8+PHBhdGggZD0iTTk2OC41LDI5NC40MDYzIEw5NjguNSwzMDQuNDA2MyBMOTc4LjUsMzA0LjQwNjMgTDk2OC41LDI5NC40MDYzICIgZmlsbD0iI0ZFRkZERCIgc3R5bGU9InN0cm9rZTojMTgxODE4O3N0cm9rZS13aWR0aDoxLjA7Ii8+PHRleHQgZmlsbD0iIzAwMDAwMCIgZm9udC1mYW1pbHk9InNhbnMtc2VyaWYiIGZvbnQtc2l6ZT0iMTMiIGxlbmd0aEFkanVzdD0ic3BhY2luZyIgdGV4dExlbmd0aD0iNzgiIHg9Ijg4NS41IiB5PSIzMTEuNjk1MyI+JiMyMzQ1ODsmIzI1MTQzOyYjMjAyMTU7JiMyMDU0MDsmIzIwMDI3OyYjMjQzNTI7PC90ZXh0PjwvZz48ZyBpZD0iZWxlbV9HTU4zMyI+PHBhdGggZD0iTTg3OS41LDQ4Ny40MDYzIEw4NzkuNSw1MTEuMzIwMyBMOTc4LjUsNTExLjMyMDMgTDk3OC41LDQ5Ny40MDYzIEw5NjguNSw0ODcuNDA2MyBMODc5LjUsNDg3LjQwNjMgIiBmaWxsPSIjRkVGRkREIiBzdHlsZT0ic3Ryb2tlOiMxODE4MTg7c3Ryb2tlLXdpZHRoOjAuNTsiLz48cGF0aCBkPSJNOTY4LjUsNDg3LjQwNjMgTDk2OC41LDQ5Ny40MDYzIEw5NzguNSw0OTcuNDA2MyBMOTY4LjUsNDg3LjQwNjMgIiBmaWxsPSIjRkVGRkREIiBzdHlsZT0ic3Ryb2tlOiMxODE4MTg7c3Ryb2tlLXdpZHRoOjEuMDsiLz48dGV4dCBmaWxsPSIjMDAwMDAwIiBmb250LWZhbWlseT0ic2Fucy1zZXJpZiIgZm9udC1zaXplPSIxMyIgbGVuZ3RoQWRqdXN0PSJzcGFjaW5nIiB0ZXh0TGVuZ3RoPSI3OCIgeD0iODg1LjUiIHk9IjUwNC42OTUzIj4mIzIwODUxOyYjMzgxOTA7JiMxOTk5NDsmIzIxMTUzOyYjMjc5Njk7JiMzMTI0Mzs8L3RleHQ+PC9nPjxnIGlkPSJlbGVtX0dNTjM2Ij48cGF0aCBkPSJNMTQyMC41LDQ4Ny40MDYzIEwxNDIwLjUsNTExLjMyMDMgTDE1MTkuNSw1MTEuMzIwMyBMMTUxOS41LDQ5Ny40MDYzIEwxNTA5LjUsNDg3LjQwNjMgTDE0MjAuNSw0ODcuNDA2MyAiIGZpbGw9IiNGRUZGREQiIHN0eWxlPSJzdHJva2U6IzE4MTgxODtzdHJva2Utd2lkdGg6MC41OyIvPjxwYXRoIGQ9Ik0xNTA5LjUsNDg3LjQwNjMgTDE1MDkuNSw0OTcuNDA2MyBMMTUxOS41LDQ5Ny40MDYzIEwxNTA5LjUsNDg3LjQwNjMgIiBmaWxsPSIjRkVGRkREIiBzdHlsZT0ic3Ryb2tlOiMxODE4MTg7c3Ryb2tlLXdpZHRoOjEuMDsiLz48dGV4dCBmaWxsPSIjMDAwMDAwIiBmb250LWZhbWlseT0ic2Fucy1zZXJpZiIgZm9udC1zaXplPSIxMyIgbGVuZ3RoQWRqdXN0PSJzcGFjaW5nIiB0ZXh0TGVuZ3RoPSI3OCIgeD0iMTQyNi41IiB5PSI1MDQuNjk1MyI+JiMzMjQ1MjsmIzMyNDU1OyYjMzMwMjE7JiMyMTE0NzsmIzI0MzE0OyYjMzU3NzQ7PC90ZXh0PjwvZz48IS0tbGluayBMZWFybmluZyB0byBQcm9jZXNzLS0+PCEtLXJldmVyc2UgbGluayBQcm9jZXNzIHRvIExlYXJuaW5nLS0+PGcgaWQ9ImxpbmtfUHJvY2Vzc19MZWFybmluZyI+PHBhdGggY29kZUxpbmU9IjUzIiBkPSJNNDEzLjYxNzUsNDc1LjMyNjggQzQxMy44Njg1LDQ3NC44MDc0IDQxMS45MDQsNDc4LjkxNzggNDEyLjE2Niw0NzguMzg0MiBDNDEzLjIxNDIsNDc2LjI1MDEgNDE0LjM1MSw0NzQuMDA2MSA0MTUuNTc1Niw0NzEuNjc4IEM0MTguMDI0OCw0NjcuMDIyIDQyMC44MjU2LDQ2Mi4wMjk3IDQyMy45NzI1LDQ1Ni45MDc1IEM0MzYuNTYsNDM2LjQxODggNDU0LjY4NSw0MTMuODUxMyA0NzgsNDAyLjQwNjMgQzUyMi4yOSwzODAuNjY2MyAxMzI3LjkxLDM3MS4wNTYzIDEzNjYsNDAyLjQwNjMgQzEzNzAuMDQxMyw0MDUuNzMyNSAxMzczLjM4OTIsNDA5LjY0MyAxMzc2LjE1MTcsNDEzLjk1MTMgQzEzNzYuODQyNCw0MTUuMDI4MyAxMzc3LjQ5NjQsNDE2LjEzMDMgMTM3OC4xMTU1LDQxNy4yNTQxICIgZmlsbD0ibm9uZSIgaWQ9IlByb2Nlc3MtYmFja3RvLUxlYXJuaW5nIiBzdHlsZT0ic3Ryb2tlOiMxODE4MTg7c3Ryb2tlLXdpZHRoOjEuMDsiLz48cG9seWdvbiBmaWxsPSIjMTgxODE4IiBwb2ludHM9IjQxMS4wMjQyLDQ4MC43Mzc0LDQxOC41MjEyLDQ3NC4zNTA0LDQxMy4xODUzLDQ3Ni4yMjg2LDQxMS4zMDcxLDQ3MC44OTI2LDQxMS4wMjQyLDQ4MC43Mzc0IiBzdHlsZT0ic3Ryb2tlOiMxODE4MTg7c3Ryb2tlLXdpZHRoOjEuMDsiLz48dGV4dCBmaWxsPSIjMDAwMDAwIiBmb250LWZhbWlseT0ic2Fucy1zZXJpZiIgZm9udC1zaXplPSIxMyIgbGVuZ3RoQWRqdXN0PSJzcGFjaW5nIiB0ZXh0TGVuZ3RoPSIyNiIgeD0iMTEwMSIgeT0iMzkxLjY5NTMiPiYjMjU5MDM7JiMyNTM0NTs8L3RleHQ+PC9nPjwhLS1saW5rIFByb2Nlc3MgdG8gQ3VzdG9tZXItLT48IS0tcmV2ZXJzZSBsaW5rIEN1c3RvbWVyIHRvIFByb2Nlc3MtLT48ZyBpZD0ibGlua19DdXN0b21lcl9Qcm9jZXNzIj48cGF0aCBjb2RlTGluZT0iNTQiIGQ9Ik00NDYuMjkxNCwzMTcuMzUyOCBDNDQ2LjE0ODUsMzE3LjQ2ODcgNDUwLjQ1NTYsMzEzLjk4NTMgNDUwLjMwOTgsMzE0LjEwNDEgQzQ0NS42NDQ3LDMxNy45MDU2IDQzOS41MzQ0LDMyMy4xODUgNDMzLjA3ODgsMzI5LjU3ODggQzQyMC4xNjc1LDM0Mi4zNjYzIDQwNS44NzUsMzU5LjYxMTMgMzk5LDM3OC40MDYzIEMzOTYuNzQzOCwzODQuNTcyNSAzOTUuMTAzMywzOTEuMDM4MSAzOTMuOTYxMiwzOTcuNjM2MSBDMzkzLjM5MDIsNDAwLjkzNTEgMzkyLjk0MzcsNDA0LjI2NzEgMzkyLjYwNzIsNDA3LjYxMTQgQzM5Mi40MzksNDA5LjI4MzYgMzkyLjI5ODIsNDEwLjk1ODggMzkyLjE4MzEsNDEyLjYzNDQgQzM5Mi4xMjU1LDQxMy40NzIyIDM5Mi4wNzQ0LDQxNC4zMTAxIDM5Mi4wMjk0LDQxNS4xNDc4IEMzOTIuMDA2OSw0MTUuNTY2NyAzOTEuOTg2LDQxNS45ODU1IDM5MS45NjY2LDQxNi40MDQyIEMzOTEuOTU2OCw0MTYuNjEzNiAzOTEuOTQ3NSw0MTYuODIyOSAzOTEuOTM4Niw0MTcuMDMyMiAiIGZpbGw9Im5vbmUiIGlkPSJDdXN0b21lci1iYWNrdG8tUHJvY2VzcyIgc3R5bGU9InN0cm9rZTojMTgxODE4O3N0cm9rZS13aWR0aDoxLjA7Ii8+PHBvbHlnb24gZmlsbD0iIzE4MTgxOCIgcG9pbnRzPSI0NTAuOTU2MiwzMTMuNTc5Miw0NDEuNDQzMywzMTYuMTI5Niw0NDcuMDY4OSwzMTYuNzIzOCw0NDYuNDc0NywzMjIuMzQ5NCw0NTAuOTU2MiwzMTMuNTc5MiIgc3R5bGU9InN0cm9rZTojMTgxODE4O3N0cm9rZS13aWR0aDoxLjA7Ii8+PHRleHQgZmlsbD0iIzAwMDAwMCIgZm9udC1mYW1pbHk9InNhbnMtc2VyaWYiIGZvbnQtc2l6ZT0iMTMiIGxlbmd0aEFkanVzdD0ic3BhY2luZyIgdGV4dExlbmd0aD0iMjYiIHg9IjQwMCIgeT0iMzkxLjY5NTMiPiYjMjQ0MzM7JiMyMTcwOTs8L3RleHQ+PC9nPjwhLS1saW5rIEN1c3RvbWVyIHRvIEZpbmFuY2UtLT48IS0tcmV2ZXJzZSBsaW5rIEZpbmFuY2UgdG8gQ3VzdG9tZXItLT48ZyBpZD0ibGlua19GaW5hbmNlX0N1c3RvbWVyIj48cGF0aCBjb2RlTGluZT0iNTUiIGQ9Ik0zOTEuOTE3NiwxNjMuMjI2IEMzOTIuMDU3MywxNjMuNjQyMiAzOTAuMzk0OCwxNTguNjg0NCAzOTAuNTM3MywxNTkuMTA2NSBDMzkwLjgyMjIsMTU5Ljk1MDYgMzkxLjExMjUsMTYwLjgwNjIgMzkxLjQwNzgsMTYxLjY3MiBDMzkxLjk5ODUsMTYzLjQwMzYgMzkyLjYwOTMsMTY1LjE3NTkgMzkzLjIzODEsMTY2Ljk3ODUgQzM5NC40OTU3LDE3MC41ODM2IDM5NS44MjQ5LDE3NC4zMDk1IDM5Ny4yMDc3LDE3OC4wNzE3IEMzOTkuOTczMSwxODUuNTk2MyA0MDIuOTUyNSwxOTMuMjY2MyA0MDYsMjAwLjQwNjMgQzQxNS45NCwyMjMuNjk2MyA0MjguNjg1LDI0OS4wNTg3IDQzOS4xODYzLDI2OS4wMjI1IEM0NDEuODExNiwyNzQuMDEzNCA0NDQuMjk2NiwyNzguNjY3IDQ0Ni41NjI2LDI4Mi44NjYzIEM0NDcuNjk1NiwyODQuOTY2IDQ0OC43NzM4LDI4Ni45NTIxIDQ0OS43ODczLDI4OC44MTAxIEM0NTAuMDQwNywyODkuMjc0NiA0NTAuMjkwMSwyODkuNzMxMSA0NTAuNTM1MiwyOTAuMTc5NCBDNDUwLjY1NzgsMjkwLjQwMzUgNDUwLjc3OTMsMjkwLjYyNTYgNDUwLjg5OTgsMjkwLjg0NTYgIiBmaWxsPSJub25lIiBpZD0iRmluYW5jZS1iYWNrdG8tQ3VzdG9tZXIiIHN0eWxlPSJzdHJva2U6IzE4MTgxODtzdHJva2Utd2lkdGg6MS4wOyIvPjxwb2x5Z29uIGZpbGw9IiMxODE4MTgiIHBvaW50cz0iMzkwLjAwOTMsMTU3LjUzNzYsMzg5LjA3OTQsMTY3LjM0MjQsMzkxLjU5OTUsMTYyLjI3OCwzOTYuNjY0LDE2NC43OTgxLDM5MC4wMDkzLDE1Ny41Mzc2IiBzdHlsZT0ic3Ryb2tlOiMxODE4MTg7c3Ryb2tlLXdpZHRoOjEuMDsiLz48dGV4dCBmaWxsPSIjMDAwMDAwIiBmb250LWZhbWlseT0ic2Fucy1zZXJpZiIgZm9udC1zaXplPSIxMyIgbGVuZ3RoQWRqdXN0PSJzcGFjaW5nIiB0ZXh0TGVuZ3RoPSIyNiIgeD0iNDA3IiB5PSIxOTguNjk1MyI+JiMzOTUzNzsmIzIxMTYwOzwvdGV4dD48L2c+PCEtLWxpbmsgRmluYW5jZSB0byBHTU4yNy0tPjxnIGlkPSJsaW5rX0ZpbmFuY2VfR01OMjciPjxwYXRoIGQ9Ik0zOTAuMDkxNCwxMzEuNDA2MyBDMzkwLjEzNjUsMTMxLjQwNjMgMzkwLjE4MTUsMTMxLjQwNjMgMzkwLjIyNjYsMTMxLjQwNjMgQzM5MC41ODY5LDEzMS40MDYzIDM5MC45NDcyLDEzMS40MDYzIDM5MS4zMDc1LDEzMS40MDYzIEMzOTQuMTksMTMxLjQwNjMgMzk3LjA3MjUsMTMxLjQwNjMgMzk5Ljk1NSwxMzEuNDA2MyBDNDA1LjcyLDEzMS40MDYzIDQxMS40ODUsMTMxLjQwNjMgNDE3LjI1LDEzMS40MDYzICIgZmlsbD0ibm9uZSIgaWQ9IkZpbmFuY2UtR01OMjciIHN0eWxlPSJzdHJva2U6IzE4MTgxODtzdHJva2Utd2lkdGg6MS4wO3N0cm9rZS1kYXNoYXJyYXk6Ny4wLDcuMDsiLz48L2c+PCEtLWxpbmsgQ3VzdG9tZXIgdG8gR01OMzAtLT48ZyBpZD0ibGlua19DdXN0b21lcl9HTU4zMCI+PHBhdGggZD0iTTQ2NC4xMjY3LDIyNC4xNTIgQzQ2NC4yNTUyLDIyMy43NDMgNDY0LjM4NTksMjIzLjMzNDkgNDY0LjUxODgsMjIyLjkyNzcgQzQ2NC43ODQ2LDIyMi4xMTM0IDQ2NS4wNTkzLDIyMS4zMDMgNDY1LjM0MzIsMjIwLjQ5NzEgQzQ2Ni40Nzg5LDIxNy4yNzM0IDQ2Ny43NjE1LDIxNC4xMjEgNDY5LjIwOCwyMTEuMDc1MyBDNDc0Ljk5MzgsMTk4Ljg5MjUgNDgzLjQsMTg4LjQxNjMgNDk1LjUsMTgxLjkwNjMgQzU2MC44NiwxNDYuNzM2MyA3NjIuNjEsMTQ5LjczNjMgODI5LjUsMTgxLjkwNjMgQzg3OS4xMiwyMDUuNzY2MyA5MTEuNzIsMjY3Ljc2NjMgOTIzLjc4LDI5NC4xODYzICIgZmlsbD0ibm9uZSIgaWQ9IkN1c3RvbWVyLUdNTjMwIiBzdHlsZT0ic3Ryb2tlOiMxODE4MTg7c3Ryb2tlLXdpZHRoOjEuMDtzdHJva2UtZGFzaGFycmF5OjcuMCw3LjA7Ii8+PC9nPjwhLS1saW5rIFByb2Nlc3MgdG8gR01OMzMtLT48ZyBpZD0ibGlua19Qcm9jZXNzX0dNTjMzIj48cGF0aCBkPSJNNDExLjA2NzYsNDgwLjEzMjQgQzQxMS4yMDQsNDc5LjgzODkgNDExLjM0Miw0NzkuNTQzIDQxMS40ODE4LDQ3OS4yNDQ3IEM0MTEuNzYxMyw0NzguNjQ4MSA0MTIuMDQ3Nyw0NzguMDQxOSA0MTIuMzQxLDQ3Ny40MjY3IEM0MTIuOTI3NSw0NzYuMTk2MyA0MTMuNTQxNCw0NzQuOTI5OCA0MTQuMTgyNiw0NzMuNjMxMyBDNDE1LjQ2NTEsNDcxLjAzNDMgNDE2Ljg1NjgsNDY4LjMwOTQgNDE4LjM1NzQsNDY1LjQ5IEM0MjEuMzU4Niw0NTkuODUxMyA0MjQuNzk1LDQ1My44MzQ0IDQyOC42NjI1LDQ0Ny43MDYzIEM0NDQuMTMyNSw0MjMuMTkzOCA0NjYuNSwzOTYuOTAxMyA0OTUuNSwzODUuOTA2MyBDNTMwLjIsMzcyLjc0NjMgNzk0LjgsMzcyLjc0NjMgODI5LjUsMzg1LjkwNjMgQzg3OC4wMSw0MDQuMzA2MyA5MTEsNDYyLjEzNjMgOTIzLjQ2LDQ4Ny4zOTYzICIgZmlsbD0ibm9uZSIgaWQ9IlByb2Nlc3MtR01OMzMiIHN0eWxlPSJzdHJva2U6IzE4MTgxODtzdHJva2Utd2lkdGg6MS4wO3N0cm9rZS1kYXNoYXJyYXk6Ny4wLDcuMDsiLz48L2c+PCEtLWxpbmsgTGVhcm5pbmcgdG8gR01OMzYtLT48ZyBpZD0ibGlua19MZWFybmluZ19HTU4zNiI+PHBhdGggZD0iTTEzOTMuMDkxNCw0OTkuNDA2MyBDMTM5My4xMzY1LDQ5OS40MDYzIDEzOTMuMTgxNSw0OTkuNDA2MyAxMzkzLjIyNjYsNDk5LjQwNjMgQzEzOTMuNTg2OSw0OTkuNDA2MyAxMzkzLjk0NzIsNDk5LjQwNjMgMTM5NC4zMDc1LDQ5OS40MDYzIEMxMzk3LjE5LDQ5OS40MDYzIDE0MDAuMDcyNSw0OTkuNDA2MyAxNDAyLjk1NSw0OTkuNDA2MyBDMTQwOC43Miw0OTkuNDA2MyAxNDE0LjQ4NSw0OTkuNDA2MyAxNDIwLjI1LDQ5OS40MDYzICIgZmlsbD0ibm9uZSIgaWQ9IkxlYXJuaW5nLUdNTjM2IiBzdHlsZT0ic3Ryb2tlOiMxODE4MTg7c3Ryb2tlLXdpZHRoOjEuMDtzdHJva2UtZGFzaGFycmF5OjcuMCw3LjA7Ii8+PC9nPjwhLS1TUkM9W2JMRERKbmZINUR0Rmh0WHJxdkw5UXRTaWNiWVp0UFo2akRxck5LblhuOGF1T3VPbjljc1FPMTBQNE9IUWU0SThDV09LLXA1QWk4OEN3OS1QLXp4Q2wtV1I3WHpKODRzd2QzVmRkZEZra1ZTLTJXWWhlWUlXcnVpQlItVFZsTG5VSEZ1RzdtdnB0NkRhNl9VYVEtMW80cGZmQmhta0lma3ltY3lXSFYyaGwxR0MyVVdKWHowQnRoeVVMRUdqQVIwV1hzRzVSUS05Z2syLW9xZjBLRFpSWG4wNXFSVHZIUDZ0bEstVkVHemxKX1NfRVZ5WUs0TXJSc2Y5YmpHdHVhUzFwSnRmVnVxTENJWUU5WTFWaWJlSGZ2QTFUZlBhUXQzTmk3TlREZEpHelkyYnV2ZUU5bVRrNWMwU010VnhuQm8xelphUzlLY0h2WEJkSGI3Q3MzVGRhRDBQTzBSbk9SR2FJaHBhUHR2NnVTeFdUQ1J2S1EyMkpqTVdRZjItbmpiUlk1TFBwVEVfbUxRZDBDY3lfUDJuQ3JNaVBOM2Y5dUZESk4xMkFpeE9JNTQzeFRBRVRZNUhQRTFkUmlDVWZzMlNPUXRmU1JnbTVMUmIzSzZQT2ZOSUNnbHVpNlFkQ1gzVjh4ZW5oMWpwWV9TbGVOOTFLdEpmQV9UTWtzQXJabzFITy0ydlFRc0hZb2l0d01lVTRkTFNRZURzb3kwSmRsVFlKaEk2Vi0gLUdzZTc3LU9lWS11Ti1xYW5tRXlUZklpY0M0LUNSUmtIT3BQWGhDOUFHdHhMUXR0N2FXYlJyeUdzSmNBU0NfdS1tU1V1UWZtbW16WTc2a2JvUENGeGh0QmVoTXdyM0VadWR6LTNubFlwbVlZSEFtVWNmQ3lFYWQ4TnE1eXltYnlWRDl5aEdRUkNIc05oSVFYczNMaUp2UW1RVTZaYUtwdnAyQVFKSUxoVTRTbmV2WjNEbXBfZFd3QTRMWE5nNDZ0Z1NWUlNjMVdBMnozdW1FbVlUNnVKbF9KVE85TXd1S3p3X19QQ090SENLb19ZYTFCNDZwVGlaamhLdi10bXVNbl8yc0lrU3QxZGZ6TnVGMU5tOGtkTnVjbDk4elcyMy1fQ1h2eDlFanoxTG5Lc0o5Y1BWdFUzMjhJVjlnZTBLQ1JZYzhkZEwweVViMjM0clRpX2txUHNLbmcxVXdUdWpNTU9KOFhzaFBLQWRGOE9UVEs2eFRCQTZFbzVBc3JsYUNVWW1WbnlZdll1bnVzcGtPQlJmSkZ1MF0tLT48L2c+PC9zdmc+;" vertex="1" parent="1">
            <mxGeometry x="-800" y="80" width="1526" height="680" as="geometry" />
          </mxCell>
        </UserObject>
      </root>
    </mxGraphModel>
  </diagram>
</mxfile>
